<?xml version="1.0" standalone="no"?>
<!DOCTYPE svg PUBLIC "-//W3C//DTD SVG 20010904//EN"
 "http://www.w3.org/TR/2001/REC-SVG-20010904/DTD/svg10.dtd">
<svg version="1.0" xmlns="http://www.w3.org/2000/svg"
 width="768.000000pt" height="768.000000pt" viewBox="0 0 768.000000 768.000000"
 preserveAspectRatio="xMidYMid meet">

<g transform="translate(0.000000,768.000000) scale(0.100000,-0.100000)"
fill="#000000" stroke="none">
<path d="M1674 7670 c-478 -33 -851 -184 -1142 -464 -239 -230 -395 -507 -466
-827 -63 -284 -61 -172 -61 -2509 0 -1169 4 -2169 9 -2224 7 -84 10 -95 20
-75 15 31 163 143 311 236 156 97 426 230 590 288 72 26 131 48 133 50 2 1 -4
31 -12 66 -59 258 -70 494 -70 1604 0 1182 11 1404 84 1690 72 286 198 512
395 710 215 215 469 347 796 415 260 53 500 63 1574 63 1138 0 1373 -11 1652
-78 297 -71 526 -197 728 -400 221 -222 353 -475 420 -810 33 -167 43 -281 56
-676 13 -405 6 -1827 -11 -2079 -17 -260 -43 -413 -101 -590 -145 -444 -461
-774 -900 -939 l-99 -38 29 -45 c16 -25 39 -54 51 -66 13 -12 19 -25 15 -33
-5 -7 -4 -10 2 -6 6 4 16 -6 22 -20 7 -15 25 -43 40 -62 38 -49 47 -66 31 -56
-7 4 6 -20 29 -54 23 -34 48 -78 55 -99 8 -20 25 -59 40 -86 14 -27 26 -55 26
-62 0 -7 10 -34 21 -61 22 -48 59 -172 100 -331 14 -51 26 -82 35 -82 43 0
254 35 343 56 597 146 1050 606 1196 1217 63 263 60 132 60 2547 0 2047 -1
2203 -18 2320 -59 414 -201 727 -446 983 -260 271 -559 426 -950 493 -114 20
-205 27 -416 34 -321 11 -4011 10 -4171 0z"/>
<path d="M2846 6169 c-514 -19 -753 -87 -967 -274 -202 -176 -311 -412 -348
-746 -32 -293 -40 -1954 -11 -2433 11 -174 38 -373 59 -429 10 -27 40 -33 58
-12 5 4 2 5 -6 0 -9 -5 -12 -4 -7 3 4 7 20 12 35 12 15 0 33 6 40 13 11 10 12
9 5 -3 -6 -12 -2 -11 19 3 14 9 40 19 57 20 16 2 33 7 38 12 4 5 1 5 -7 0 -9
-5 -12 -4 -8 2 4 5 21 10 38 11 17 0 37 6 42 11 6 6 28 11 48 11 21 0 41 5 44
10 9 15 27 12 20 -3 -4 -6 -1 -5 7 3 7 8 27 17 43 19 17 1 38 7 48 13 10 5 26
6 37 3 11 -3 28 -2 38 4 11 6 38 12 60 13 22 2 38 6 36 9 -2 4 6 7 19 6 12 0
56 4 97 9 41 5 96 9 122 9 25 0 45 2 43 5 -2 3 40 5 93 5 54 0 127 2 165 5 37
3 67 3 67 0 0 -3 28 -6 63 -7 123 -4 253 -14 282 -23 17 -4 59 -11 95 -15 36
-3 81 -8 100 -11 20 -3 -4 10 -56 29 -438 163 -761 493 -903 922 -54 165 -74
289 -74 465 0 176 20 300 74 465 73 220 186 402 354 570 168 168 350 281 570
354 170 56 280 74 465 74 238 1 423 -40 627 -138 430 -206 735 -601 820 -1065
24 -135 24 -383 -1 -515 -114 -610 -584 -1081 -1191 -1191 -106 -19 -332 -25
-440 -11 -41 5 -55 4 -45 -3 8 -5 30 -10 48 -10 17 0 32 -4 32 -10 0 -5 3 -9
8 -9 4 1 25 1 47 0 30 -1 36 -4 25 -11 -11 -7 -7 -10 17 -10 17 0 35 -4 38
-10 3 -5 17 -10 31 -10 14 0 35 -5 47 -12 12 -6 38 -15 57 -19 43 -9 96 -27
132 -45 14 -8 34 -14 43 -14 10 0 13 -5 9 -12 -5 -8 0 -9 14 -6 12 4 22 3 22
0 0 -7 19 -16 130 -64 25 -10 52 -24 60 -29 8 -5 23 -12 33 -15 9 -4 17 -11
17 -16 0 -5 5 -6 10 -3 6 3 10 2 10 -3 0 -5 8 -12 18 -16 9 -3 35 -17 57 -30
21 -14 44 -22 50 -19 5 4 7 3 3 -2 -8 -8 39 -42 87 -63 86 -38 379 -261 473
-360 l43 -45 99 16 c264 44 459 145 621 322 134 146 217 344 254 605 28 200
37 666 32 1579 -6 1030 -14 1148 -84 1381 -25 85 -85 216 -125 274 -48 69
-127 153 -197 208 -179 143 -407 215 -758 239 -193 13 -1871 20 -2167 8z
m2670 -499 c73 -36 126 -91 163 -169 22 -47 26 -69 26 -141 -1 -71 -5 -94 -28
-141 -32 -66 -108 -141 -175 -172 -68 -32 -207 -31 -274 2 -75 36 -134 95
-170 169 -29 59 -33 76 -33 147 0 71 4 88 33 147 86 175 285 243 458 158z"/>
<path d="M3705 4780 c-381 -58 -697 -344 -785 -711 -116 -488 152 -971 625
-1128 242 -79 489 -61 720 54 244 121 413 325 490 590 32 109 43 282 26 395
-17 108 -71 258 -127 352 -65 110 -203 248 -313 316 -187 114 -426 164 -636
132z"/>
<path d="M3468 2403 c12 -2 30 -2 40 0 9 3 -1 5 -23 4 -22 0 -30 -2 -17 -4z"/>
<path d="M3538 2393 c6 -2 18 -2 25 0 6 3 1 5 -13 5 -14 0 -19 -2 -12 -5z"/>
</g>
</svg>
