<?xml version="1.0" standalone="no"?>
<!DOCTYPE svg PUBLIC "-//W3C//DTD SVG 20010904//EN"
 "http://www.w3.org/TR/2001/REC-SVG-20010904/DTD/svg10.dtd">
<svg version="1.0" xmlns="http://www.w3.org/2000/svg"
 width="225.000000pt" height="225.000000pt" viewBox="0 0 225.000000 225.000000"
 preserveAspectRatio="xMidYMid meet">

<g transform="translate(0.000000,225.000000) scale(0.100000,-0.100000)"
fill="#00000" stroke="none">
<path d="M932 2206 c-424 -81 -759 -390 -869 -801 -24 -90 -27 -117 -27 -275
0 -159 2 -184 27 -275 30 -112 94 -253 158 -346 102 -151 291 -311 440 -373
l36 -15 0 137 c0 170 16 261 94 549 l60 222 -18 33 c-13 25 -18 55 -18 123 0
78 4 98 29 153 59 128 169 173 272 111 72 -43 75 -121 15 -314 -23 -71 -46
-158 -53 -191 -10 -54 -9 -66 8 -99 29 -59 63 -79 144 -83 61 -4 78 -1 125 22
143 71 233 275 223 509 -4 76 -11 127 -23 157 -58 144 -191 234 -364 246 -287
21 -556 -191 -578 -456 -7 -86 8 -138 61 -202 43 -54 44 -55 35 -104 -20 -109
-20 -110 -106 -70 -76 36 -136 95 -168 169 -37 82 -46 228 -20 327 44 169 175
327 340 412 109 56 175 75 294 87 166 18 337 -11 477 -80 248 -122 362 -361
310 -656 -58 -336 -266 -544 -546 -545 -98 0 -141 13 -231 71 l-63 40 -23
-102 c-47 -208 -102 -332 -190 -428 l-53 -57 77 -21 c129 -34 180 -41 313 -41
307 0 544 96 763 309 144 140 240 301 295 498 25 91 27 111 26 283 0 158 -3
197 -22 263 -69 250 -209 462 -401 608 -93 71 -267 154 -386 185 -125 32 -346
42 -463 20z"/>
</g>
</svg>
