<?xml version="1.0" standalone="no"?>
<!DOCTYPE svg PUBLIC "-//W3C//DTD SVG 20010904//EN"
 "http://www.w3.org/TR/2001/REC-SVG-20010904/DTD/svg10.dtd">
<svg version="1.0" xmlns="http://www.w3.org/2000/svg"
 width="225.000000pt" height="225.000000pt" viewBox="0 0 225.000000 225.000000"
 preserveAspectRatio="xMidYMid meet">

<g transform="translate(0.000000,194.000000) scale(0.100000,-0.100000)"
fill="#000000" stroke="none">
<path d="M772 1597 l-132 -132 0 -493 0 -492 165 0 165 0 0 -132 0 -133 133
133 132 132 110 0 110 0 248 247 247 246 0 379 0 378 -523 0 -522 0 -133 -133z
m1078 -269 l0 -303 -112 -112 -113 -113 -110 0 -110 0 -105 -105 c-58 -58
-108 -105 -112 -105 -5 0 -8 47 -8 105 l0 105 -110 0 -110 0 0 415 0 415 445
0 445 0 0 -302z"/>
<path d="M1300 1245 l0 -165 50 0 50 0 0 165 0 165 -50 0 -50 0 0 -165z"/>
<path d="M1570 1246 l0 -166 55 0 55 0 -2 163 -3 162 -52 3 -53 3 0 -165z"/>
</g>
</svg>
